<svg width="72" height="72" viewBox="0 0 72 72" fill="none" xmlns="http://www.w3.org/2000/svg">
<rect width="71.75" height="72" rx="24" fill="#2E2F38"/>
<path d="M36.4216 47V31.512C36.4216 31.1493 36.4216 30.7653 36.4216 30.36C36.443 29.9333 36.4643 29.496 36.4856 29.048C35.7603 29.752 34.9176 30.3707 33.9576 30.904C32.9976 31.416 32.0163 31.7893 31.0136 32.024L30.3416 29.688C30.7256 29.6453 31.2056 29.5067 31.7816 29.272C32.379 29.016 32.9976 28.7067 33.6376 28.344C34.299 27.96 34.907 27.5547 35.4616 27.128C36.0163 26.7013 36.443 26.2853 36.7416 25.88H38.9816V47H36.4216Z" fill="white"/>
</svg>
