<svg width="73" height="72" viewBox="0 0 73 72" fill="none" xmlns="http://www.w3.org/2000/svg">
<rect x="0.75" width="71.75" height="72" rx="24" fill="#2E2F38"/>
<path d="M29.7899 47V44.92C31.9019 43.3627 33.6619 41.9973 35.0699 40.824C36.4992 39.6507 37.6405 38.584 38.4939 37.624C39.3472 36.664 39.9552 35.7573 40.3179 34.904C40.6805 34.0293 40.8619 33.1227 40.8619 32.184C40.8619 30.9253 40.4565 29.912 39.6459 29.144C38.8565 28.3547 37.7685 27.96 36.3819 27.96C34.9312 27.96 33.7685 28.44 32.8939 29.4C32.0192 30.3387 31.5072 31.5973 31.3579 33.176L29.1179 31.832C29.3099 30.5947 29.7045 29.5067 30.3019 28.568C30.9205 27.6293 31.7419 26.8933 32.7659 26.36C33.8112 25.8267 35.0485 25.56 36.4779 25.56C37.5659 25.56 38.5365 25.72 39.3899 26.04C40.2645 26.36 41.0112 26.8187 41.6299 27.416C42.2485 27.992 42.7179 28.6853 43.0379 29.496C43.3792 30.3067 43.5499 31.2027 43.5499 32.184C43.5499 33.5067 43.2299 34.808 42.5899 36.088C41.9499 37.3467 40.8939 38.6693 39.4219 40.056C37.9499 41.4427 35.9552 42.9787 33.4379 44.664V44.696C33.6725 44.6747 33.9925 44.664 34.3979 44.664C34.8245 44.6427 35.2405 44.632 35.6459 44.632C36.0725 44.6107 36.3925 44.6 36.6059 44.6H43.9979V47H29.7899Z" fill="white"/>
</svg>
