<svg width="73" height="72" viewBox="0 0 73 72" fill="none" xmlns="http://www.w3.org/2000/svg">
<rect x="0.5" width="71.75" height="72" rx="24" fill="#2E2F38"/>
<path d="M36.4519 47.32C34.5745 47.32 32.9105 46.8827 31.4599 46.008C30.0305 45.112 29.0599 43.8853 28.5479 42.328L31.1079 41.016C31.3639 41.8053 31.7159 42.4987 32.1639 43.096C32.6119 43.672 33.1985 44.12 33.9239 44.44C34.6705 44.76 35.5985 44.92 36.7079 44.92C37.6465 44.92 38.4359 44.7493 39.0759 44.408C39.7159 44.0667 40.2065 43.608 40.5479 43.032C40.8892 42.4347 41.0599 41.752 41.0599 40.984C41.0599 40.216 40.9105 39.576 40.6119 39.064C40.3345 38.552 39.8865 38.1787 39.2679 37.944C38.6492 37.688 37.8385 37.56 36.8359 37.56C36.6012 37.56 36.3452 37.5707 36.0679 37.592C35.7905 37.592 35.5025 37.6133 35.2039 37.656V35.096C35.3959 35.1173 35.5772 35.128 35.7479 35.128C35.9399 35.128 36.1105 35.128 36.2599 35.128C37.8172 35.128 38.9265 34.8293 39.5879 34.232C40.2492 33.6133 40.5799 32.6533 40.5799 31.352C40.5799 30.2427 40.2385 29.4 39.5559 28.824C38.8732 28.248 37.9025 27.96 36.6439 27.96C35.2999 27.96 34.2759 28.2587 33.5719 28.856C32.8679 29.432 32.3132 30.2213 31.9079 31.224L29.4759 30.072C29.8172 29.176 30.3292 28.3867 31.0119 27.704C31.6945 27.0213 32.5159 26.488 33.4759 26.104C34.4572 25.72 35.5345 25.528 36.7079 25.528C38.1799 25.528 39.3959 25.784 40.3559 26.296C41.3159 26.7867 42.0305 27.448 42.4999 28.28C42.9905 29.112 43.2359 30.0293 43.2359 31.032C43.2359 31.8 43.1292 32.4933 42.9159 33.112C42.7025 33.7093 42.4039 34.232 42.0199 34.68C41.6572 35.128 41.2412 35.4907 40.7719 35.768C40.3025 36.024 39.8012 36.1947 39.2679 36.28V36.344C39.9719 36.3653 40.5905 36.504 41.1239 36.76C41.6785 37.016 42.1479 37.3573 42.5319 37.784C42.9159 38.2107 43.2039 38.7013 43.3959 39.256C43.6092 39.7893 43.7159 40.3547 43.7159 40.952C43.7159 42.1893 43.4065 43.288 42.7879 44.248C42.1905 45.208 41.3479 45.9653 40.2599 46.52C39.1719 47.0533 37.9025 47.32 36.4519 47.32Z" fill="white"/>
</svg>
