<svg width="73" height="72" viewBox="0 0 73 72" fill="none" xmlns="http://www.w3.org/2000/svg">
<rect x="0.75" width="71.75" height="72" rx="24" fill="#2E2F38"/>
<path d="M36.6215 47.32C34.7442 47.32 33.2295 46.8933 32.0775 46.04C30.9468 45.1867 30.0722 44.0027 29.4535 42.488L31.9495 41.176C32.2908 42.2853 32.8135 43.192 33.5175 43.896C34.2428 44.5787 35.2988 44.92 36.6855 44.92C37.6668 44.92 38.4988 44.7387 39.1815 44.376C39.8855 44.0133 40.4295 43.5013 40.8135 42.84C41.1975 42.1573 41.3895 41.3467 41.3895 40.408C41.3895 39.4053 41.2082 38.5733 40.8455 37.912C40.5042 37.2293 40.0028 36.7173 39.3415 36.376C38.6802 36.0347 37.8695 35.864 36.9095 35.864C36.2268 35.864 35.5868 35.9387 34.9895 36.088C34.4135 36.216 33.8908 36.4293 33.4215 36.728C32.9522 37.0267 32.5468 37.4213 32.2055 37.912L29.9655 37.496L31.2135 25.88H43.0855V28.28H33.3895L32.5575 34.936L32.4935 35.224H32.5575C33.0695 34.6907 33.7202 34.264 34.5095 33.944C35.3202 33.624 36.2802 33.464 37.3895 33.464C38.7335 33.464 39.8962 33.752 40.8775 34.328C41.8802 34.8827 42.6588 35.672 43.2135 36.696C43.7682 37.72 44.0455 38.9147 44.0455 40.28C44.0455 41.368 43.8642 42.3493 43.5015 43.224C43.1388 44.0987 42.6268 44.8453 41.9655 45.464C41.3042 46.0613 40.5148 46.52 39.5975 46.84C38.7015 47.16 37.7095 47.32 36.6215 47.32Z" fill="white"/>
</svg>
