<svg width="73" height="72" viewBox="0 0 73 72" fill="none" xmlns="http://www.w3.org/2000/svg">
<rect x="0.75" width="71.75" height="72" rx="24" fill="#2E2F38"/>
<path d="M36.7466 25.592C38.112 25.592 39.296 25.816 40.2986 26.264C41.3013 26.712 42.08 27.352 42.6346 28.184C43.1893 28.9947 43.4666 29.976 43.4666 31.128C43.4666 32.216 43.2 33.176 42.6666 34.008C42.1546 34.8187 41.4293 35.4373 40.4906 35.864V35.896C41.6853 36.344 42.6346 37.0267 43.3386 37.944C44.064 38.8613 44.4266 39.9813 44.4266 41.304C44.4266 42.5413 44.1066 43.608 43.4666 44.504C42.8266 45.4 41.9306 46.0933 40.7786 46.584C39.648 47.0747 38.304 47.32 36.7466 47.32C35.2106 47.32 33.8666 47.0747 32.7146 46.584C31.5626 46.0933 30.6666 45.4 30.0266 44.504C29.3866 43.608 29.0666 42.5413 29.0666 41.304C29.0666 40.0027 29.4186 38.8933 30.1226 37.976C30.8266 37.0373 31.7973 36.344 33.0346 35.896V35.864C32.1173 35.4587 31.3813 34.8507 30.8266 34.04C30.2933 33.208 30.0266 32.2373 30.0266 31.128C30.0266 29.976 30.304 28.9947 30.8586 28.184C31.4133 27.352 32.192 26.712 33.1946 26.264C34.2186 25.816 35.4026 25.592 36.7466 25.592ZM36.7466 27.992C35.5093 27.992 34.5173 28.2907 33.7706 28.888C33.0453 29.4853 32.6826 30.3173 32.6826 31.384C32.6826 32.4293 33.056 33.2507 33.8026 33.848C34.5493 34.4453 35.5306 34.744 36.7466 34.744C37.9626 34.744 38.944 34.4453 39.6906 33.848C40.4373 33.2507 40.8106 32.4293 40.8106 31.384C40.8106 30.3173 40.448 29.4853 39.7226 28.888C38.9973 28.2907 38.0053 27.992 36.7466 27.992ZM36.7466 44.92C37.792 44.92 38.688 44.7707 39.4346 44.472C40.1813 44.152 40.7573 43.704 41.1626 43.128C41.568 42.5307 41.7706 41.8373 41.7706 41.048C41.7706 40.2373 41.5573 39.544 41.1306 38.968C40.7253 38.3707 40.1493 37.9227 39.4026 37.624C38.656 37.304 37.7706 37.144 36.7466 37.144C35.744 37.144 34.8586 37.304 34.0906 37.624C33.344 37.9227 32.7573 38.3707 32.3306 38.968C31.9253 39.544 31.7226 40.2373 31.7226 41.048C31.7226 41.8373 31.9253 42.5307 32.3306 43.128C32.736 43.704 33.312 44.152 34.0586 44.472C34.8266 44.7707 35.7226 44.92 36.7466 44.92Z" fill="white"/>
</svg>
