<svg width="73" height="72" viewBox="0 0 73 72" fill="none" xmlns="http://www.w3.org/2000/svg">
<rect x="0.5" width="71.75" height="72" rx="24" fill="#2E2F38"/>
<path d="M36.129 25.56C37.8997 25.56 39.393 26.0293 40.609 26.968C41.825 27.8853 42.7423 29.1653 43.361 30.808C43.9797 32.4293 44.289 34.3067 44.289 36.44C44.289 38.808 43.9797 40.8027 43.361 42.424C42.7423 44.024 41.825 45.24 40.609 46.072C39.4143 46.904 37.9317 47.32 36.161 47.32C34.4117 47.32 32.9077 46.9147 31.649 46.104C30.3903 45.2933 29.4517 44.1093 28.833 42.552L31.361 41.208C31.7023 42.3173 32.257 43.2133 33.025 43.896C33.8143 44.5787 34.8917 44.92 36.257 44.92C37.3663 44.92 38.2837 44.7067 39.009 44.28C39.7557 43.832 40.3423 43.2027 40.769 42.392C41.1957 41.56 41.4943 40.568 41.665 39.416C41.857 38.264 41.953 36.984 41.953 35.576C41.953 35.5333 41.953 35.4907 41.953 35.448C41.953 35.384 41.953 35.3307 41.953 35.288H41.825C41.569 36.248 41.121 37.0267 40.481 37.624C39.841 38.2 39.1157 38.616 38.305 38.872C37.5157 39.128 36.7263 39.256 35.937 39.256C34.5503 39.256 33.3237 38.9893 32.257 38.456C31.1903 37.9013 30.3583 37.1333 29.761 36.152C29.1637 35.1707 28.865 34.008 28.865 32.664C28.865 31.2133 29.153 29.9653 29.729 28.92C30.305 27.8533 31.137 27.032 32.225 26.456C33.313 25.8587 34.6143 25.56 36.129 25.56ZM36.161 28.024C34.6677 28.024 33.5263 28.44 32.737 29.272C31.9477 30.0827 31.553 31.224 31.553 32.696C31.553 33.9547 31.969 34.9573 32.801 35.704C33.633 36.4293 34.753 36.792 36.161 36.792C37.0783 36.792 37.8783 36.6107 38.561 36.248C39.265 35.864 39.809 35.352 40.193 34.712C40.577 34.0507 40.769 33.2933 40.769 32.44C40.769 31.544 40.577 30.7653 40.193 30.104C39.809 29.4427 39.265 28.9307 38.561 28.568C37.8783 28.2053 37.0783 28.024 36.161 28.024Z" fill="white"/>
</svg>
