<svg width="73" height="72" viewBox="0 0 73 72" fill="none" xmlns="http://www.w3.org/2000/svg">
<rect x="0.5" width="71.75" height="72" rx="24" fill="#2E2F38"/>
<path fill-rule="evenodd" clip-rule="evenodd" d="M31.0858 27H31.5H47.5H48.5V28V44V45H47.5H31.5H31.0858L30.7929 44.7071L22.7929 36.7071L22.0858 36L22.7929 35.2929L30.7929 27.2929L31.0858 27ZM31.9142 29L24.9142 36L31.9142 43H46.5V29H31.9142ZM35.5 31.5858L36.2071 32.2929L38.5 34.5858L40.7929 32.2929L41.5 31.5858L42.9142 33L42.2071 33.7071L39.9142 36L42.2071 38.2929L42.9142 39L41.5 40.4142L40.7929 39.7071L38.5 37.4142L36.2071 39.7071L35.5 40.4142L34.0858 39L34.7929 38.2929L37.0858 36L34.7929 33.7071L34.0858 33L35.5 31.5858Z" fill="white"/>
</svg>
