<svg width="72" height="72" viewBox="0 0 72 72" fill="none" xmlns="http://www.w3.org/2000/svg">
<rect width="71.75" height="72" rx="24" fill="#4E505F"/>
<path d="M45.5113 41.592C45.0633 42.7867 44.4233 43.8213 43.5913 44.696C42.7593 45.5493 41.7779 46.2 40.6473 46.648C39.5379 47.096 38.3219 47.32 36.9993 47.32C34.9939 47.32 33.2553 46.8827 31.7833 46.008C30.3326 45.112 29.2019 43.8533 28.3913 42.232C27.6019 40.6107 27.2073 38.68 27.2073 36.44C27.2073 34.2 27.6019 32.2693 28.3913 30.648C29.2019 29.0267 30.3326 27.7787 31.7833 26.904C33.2553 26.008 34.9726 25.56 36.9353 25.56C38.3006 25.56 39.5166 25.752 40.5833 26.136C41.6499 26.4987 42.5566 27.0533 43.3033 27.8C44.0713 28.5253 44.6793 29.4213 45.1273 30.488L42.5993 31.672C42.1299 30.456 41.4473 29.5387 40.5513 28.92C39.6766 28.28 38.5353 27.96 37.1273 27.96C35.6979 27.96 34.4393 28.3013 33.3513 28.984C32.2633 29.6453 31.4099 30.6053 30.7913 31.864C30.1939 33.1227 29.8953 34.648 29.8953 36.44C29.8953 38.2107 30.1833 39.736 30.7593 41.016C31.3353 42.2747 32.1566 43.2453 33.2233 43.928C34.2899 44.5893 35.5486 44.92 36.9993 44.92C38.4073 44.92 39.6339 44.568 40.6793 43.864C41.7246 43.1387 42.4819 42.0613 42.9513 40.632L45.5113 41.592Z" fill="white"/>
</svg>
