<svg width="72" height="72" viewBox="0 0 72 72" fill="none" xmlns="http://www.w3.org/2000/svg">
<rect x="0.25" width="71.75" height="72" rx="24" fill="#4B5EFC"/>
<path d="M44.0338 35.672V38.072H28.4818V35.672H44.0338ZM36.2578 41.08C36.8764 41.08 37.3778 41.272 37.7618 41.656C38.1458 42.04 38.3378 42.5413 38.3378 43.16C38.3378 43.7787 38.1458 44.28 37.7618 44.664C37.3778 45.048 36.8764 45.24 36.2578 45.24C35.6391 45.24 35.1378 45.048 34.7538 44.664C34.3698 44.28 34.1778 43.7787 34.1778 43.16C34.1778 42.5413 34.3698 42.04 34.7538 41.656C35.1378 41.272 35.6391 41.08 36.2578 41.08ZM36.2578 28.568C36.8764 28.568 37.3778 28.76 37.7618 29.144C38.1458 29.528 38.3378 30.0293 38.3378 30.648C38.3378 31.2667 38.1458 31.768 37.7618 32.152C37.3778 32.536 36.8764 32.728 36.2578 32.728C35.6391 32.728 35.1378 32.536 34.7538 32.152C34.3698 31.768 34.1778 31.2667 34.1778 30.648C34.1778 30.0293 34.3698 29.528 34.7538 29.144C35.1378 28.76 35.6391 28.568 36.2578 28.568Z" fill="white"/>
</svg>
