<svg width="73" height="72" viewBox="0 0 73 72" fill="none" xmlns="http://www.w3.org/2000/svg">
<rect x="0.5" width="71.75" height="72" rx="24" fill="#4E505F"/>
<path d="M28.5569 47L41.9969 25.88H44.4289L30.9889 47H28.5569ZM29.1649 25.56C30.2102 25.56 31.1062 25.8053 31.8529 26.296C32.6209 26.7653 33.2075 27.4373 33.6129 28.312C34.0395 29.1867 34.2529 30.2107 34.2529 31.384C34.2529 32.5573 34.0395 33.5813 33.6129 34.456C33.2075 35.3307 32.6209 36.0133 31.8529 36.504C31.1062 36.9733 30.2102 37.208 29.1649 37.208C28.1409 37.208 27.2449 36.9733 26.4769 36.504C25.7089 36.0133 25.1115 35.3307 24.6849 34.456C24.2795 33.5813 24.0769 32.5573 24.0769 31.384C24.0769 30.2107 24.2795 29.1867 24.6849 28.312C25.1115 27.4373 25.7089 26.7653 26.4769 26.296C27.2449 25.8053 28.1409 25.56 29.1649 25.56ZM29.1649 27.576C28.5675 27.576 28.0555 27.7253 27.6289 28.024C27.2022 28.3227 26.8822 28.76 26.6689 29.336C26.4555 29.8907 26.3489 30.5733 26.3489 31.384C26.3489 32.1733 26.4555 32.856 26.6689 33.432C26.8822 34.008 27.2022 34.4453 27.6289 34.744C28.0555 35.0427 28.5675 35.192 29.1649 35.192C29.7835 35.192 30.2955 35.0427 30.7009 34.744C31.1275 34.4453 31.4475 34.008 31.6609 33.432C31.8742 32.856 31.9809 32.1733 31.9809 31.384C31.9809 30.5733 31.8742 29.8907 31.6609 29.336C31.4475 28.76 31.1275 28.3227 30.7009 28.024C30.2955 27.7253 29.7835 27.576 29.1649 27.576ZM43.8209 35.672C44.8662 35.672 45.7622 35.9173 46.5089 36.408C47.2769 36.8773 47.8635 37.5493 48.2689 38.424C48.6955 39.2987 48.9089 40.3227 48.9089 41.496C48.9089 42.6693 48.6955 43.6933 48.2689 44.568C47.8635 45.4427 47.2769 46.1253 46.5089 46.616C45.7622 47.0853 44.8662 47.32 43.8209 47.32C42.7969 47.32 41.9009 47.0853 41.1329 46.616C40.3649 46.1253 39.7675 45.4427 39.3409 44.568C38.9355 43.6933 38.7329 42.6693 38.7329 41.496C38.7329 40.3227 38.9355 39.2987 39.3409 38.424C39.7675 37.5493 40.3649 36.8773 41.1329 36.408C41.9009 35.9173 42.7969 35.672 43.8209 35.672ZM43.8209 37.688C43.2235 37.688 42.7115 37.8373 42.2849 38.136C41.8582 38.4347 41.5382 38.872 41.3249 39.448C41.1115 40.0027 41.0049 40.6853 41.0049 41.496C41.0049 42.2853 41.1115 42.968 41.3249 43.544C41.5382 44.12 41.8582 44.5573 42.2849 44.856C42.7115 45.1547 43.2235 45.304 43.8209 45.304C44.4395 45.304 44.9515 45.1547 45.3569 44.856C45.7835 44.5573 46.1035 44.12 46.3169 43.544C46.5302 42.968 46.6369 42.2853 46.6369 41.496C46.6369 40.6853 46.5302 40.0027 46.3169 39.448C46.1035 38.872 45.7835 38.4347 45.3569 38.136C44.9515 37.8373 44.4395 37.688 43.8209 37.688Z" fill="white"/>
</svg>
