<svg width="73" height="72" viewBox="0 0 73 72" fill="none" xmlns="http://www.w3.org/2000/svg">
<rect x="0.75" width="71.75" height="72" rx="24" fill="#2E2F38"/>
<path d="M36.7489 47.32C34.3595 47.32 32.4502 46.392 31.0209 44.536C29.5915 42.68 28.8769 39.9813 28.8769 36.44C28.8769 32.8987 29.5915 30.2 31.0209 28.344C32.4502 26.488 34.3595 25.56 36.7489 25.56C39.1595 25.56 41.0689 26.488 42.4769 28.344C43.9062 30.2 44.6209 32.8987 44.6209 36.44C44.6209 39.9813 43.9062 42.68 42.4769 44.536C41.0689 46.392 39.1595 47.32 36.7489 47.32ZM36.7489 45.016C37.8795 45.016 38.8289 44.696 39.5969 44.056C40.3862 43.3947 40.9729 42.424 41.3569 41.144C41.7622 39.864 41.9649 38.296 41.9649 36.44C41.9649 34.584 41.7622 33.016 41.3569 31.736C40.9729 30.456 40.3862 29.496 39.5969 28.856C38.8289 28.1947 37.8795 27.864 36.7489 27.864C35.6182 27.864 34.6582 28.1947 33.8689 28.856C33.1009 29.496 32.5142 30.456 32.1089 31.736C31.7249 33.016 31.5329 34.584 31.5329 36.44C31.5329 38.296 31.7249 39.864 32.1089 41.144C32.5142 42.424 33.1009 43.3947 33.8689 44.056C34.6582 44.696 35.6182 45.016 36.7489 45.016Z" fill="white"/>
</svg>
